<svg width="84" height="28" viewBox="0 0 84 28" fill="none" xmlns="http://www.w3.org/2000/svg">
<path fill-rule="evenodd" clip-rule="evenodd" d="M27.4086 0.400391V13.9976H20.8032V27.5984H7.38482V13.9976H0.568359V0.400391H27.4086ZM56.9296 0.400391H83.7699V23.2536H61.4234L61.4082 23.2662L56.9296 27.6004V0.400391ZM55.5815 0.401089V13.9983H48.8713V27.5991H35.4529V13.9983H28.7412V0.401089H55.5815ZM71.6588 6.71493H70.6138V4.11158H69.416V3.17578H72.8565V4.11158H71.6588V6.71493ZM76.9197 6.71351H75.7705L75.4407 5.92547H73.9548L73.625 6.71351H72.4793L73.9964 3.17788H75.4025L76.9197 6.71351ZM74.6977 4.12775L74.3401 4.99319H75.0588L74.7012 4.12775H74.6977ZM78.2147 5.55046V6.71141H77.1663V3.17578H78.8605C79.843 3.17578 80.4124 3.53814 80.4124 4.40006C80.4124 5.26198 79.8499 5.55046 78.857 5.55046H78.2147ZM78.2147 4.11158V4.66743H78.8119C79.1903 4.66743 79.3257 4.58651 79.3257 4.37543C79.3257 4.18194 79.1799 4.11158 78.8119 4.11158H78.2147ZM71.6588 11.4596H70.6138V8.85625H69.416V7.92045H72.8565V8.85625H71.6588V11.4596ZM75.7705 11.4584L75.4407 10.6704H73.9548L73.625 11.4584H72.4793L73.9964 7.92278H75.4025L76.9197 11.4584H75.7705ZM74.6977 8.87265L74.3401 9.73808H75.0588L74.7012 8.87265H74.6977ZM78.2147 10.2949V11.4558H77.1663V7.92022H78.8605C79.843 7.92022 80.4124 8.28257 80.4124 9.14449C80.4124 10.0064 79.8499 10.2949 78.857 10.2949H78.2147ZM78.2147 8.85601V9.41186H78.8119C79.1903 9.41186 79.3257 9.33095 79.3257 9.11987C79.3257 8.92637 79.1799 8.85601 78.8119 8.85601H78.2147Z" fill="white"/>
</svg>
