<svg width="84" height="28" viewBox="0 0 84 28" fill="none" xmlns="http://www.w3.org/2000/svg">
<path fill-rule="evenodd" clip-rule="evenodd" d="M27.1876 0.400391V13.9976H20.6337V27.5984H7.31996V13.9976H0.556641V0.400391H27.1876ZM56.4785 0.400391H83.1094V23.2536H60.9372L60.9221 23.2662L56.4785 27.6004V0.400391ZM55.1408 0.401089V13.9983H48.4829V27.5991H35.1692V13.9983H28.5099V0.401089H55.1408ZM71.0925 6.71493H70.0556V4.11158H68.8672V3.17578H72.2809V4.11158H71.0925V6.71493ZM76.3123 6.71351H75.1721L74.8449 5.92547H73.3706L73.0433 6.71351H71.9066L73.4119 3.17788H74.807L76.3123 6.71351ZM74.1077 4.12775L73.7529 4.99319H74.466L74.1112 4.12775H74.1077ZM77.5973 5.55046V6.71141H76.557V3.17578H78.238C79.2129 3.17578 79.7778 3.53814 79.7778 4.40006C79.7778 5.26198 79.2197 5.55046 78.2346 5.55046H77.5973ZM77.5973 4.11158V4.66743H78.1898C78.5653 4.66743 78.6996 4.58651 78.6996 4.37543C78.6996 4.18194 78.5549 4.11158 78.1898 4.11158H77.5973ZM71.0925 11.4596H70.0556V8.85625H68.8672V7.92045H72.2809V8.85625H71.0925V11.4596ZM75.1721 11.4584L74.8449 10.6704H73.3706L73.0433 11.4584H71.9066L73.4119 7.92278H74.807L76.3123 11.4584H75.1721ZM74.1077 8.87265L73.7529 9.73808H74.466L74.1112 8.87265H74.1077ZM77.5973 10.2949V11.4558H76.557V7.92022H78.238C79.2129 7.92022 79.7778 8.28257 79.7778 9.14449C79.7778 10.0064 79.2197 10.2949 78.2346 10.2949H77.5973ZM77.5973 8.85601V9.41186H78.1898C78.5653 9.41186 78.6996 9.33095 78.6996 9.11987C78.6996 8.92638 78.5549 8.85601 78.1898 8.85601H77.5973Z" fill="black"/>
</svg>
