<svg width="54" height="18" viewBox="0 0 54 18" fill="none" xmlns="http://www.w3.org/2000/svg">
<path fill-rule="evenodd" clip-rule="evenodd" d="M17.7709 0.5V8.99826H13.6398V17.4987H5.24757V8.99826H0.984375V0.5H17.7709ZM36.2342 0.5H53.0207V14.7832H39.0447L39.0352 14.7911L36.2342 17.5V0.5ZM35.391 0.500436V8.9987H31.1942V17.4992H22.802V8.9987H18.6044V0.500436H35.391ZM45.4461 4.44659H44.7926V2.81949H44.0435V2.23462H46.1952V2.81949H45.4461V4.44659ZM48.7364 4.4457H48.0177L47.8114 3.95317H46.8821L46.6758 4.4457H45.9593L46.9082 2.23593H47.7876L48.7364 4.4457ZM47.3468 2.8296L47.1231 3.3705H47.5726L47.349 2.8296H47.3468ZM49.5464 3.71879V4.44439H48.8907V2.23462H49.9503C50.5647 2.23462 50.9208 2.46109 50.9208 2.99979C50.9208 3.53849 50.5691 3.71879 49.9481 3.71879H49.5464ZM49.5464 2.81949V3.1669H49.9199C50.1565 3.1669 50.2412 3.11633 50.2412 2.9844C50.2412 2.86347 50.15 2.81949 49.9199 2.81949H49.5464ZM45.4461 7.412H44.7926V5.78491H44.0435V5.20004H46.1952V5.78491H45.4461V7.412ZM48.0177 7.41126L47.8114 6.91873H46.8821L46.6758 7.41126H45.9593L46.9082 5.20149H47.7876L48.7364 7.41126H48.0177ZM47.3468 5.79516L47.1231 6.33606H47.5726L47.349 5.79516H47.3468ZM49.5464 6.68406V7.40966H48.8907V5.19989H49.9503C50.5647 5.19989 50.9208 5.42636 50.9208 5.96506C50.9208 6.50376 50.5691 6.68406 49.9481 6.68406H49.5464ZM49.5464 5.78476V6.13217H49.9199C50.1565 6.13217 50.2412 6.0816 50.2412 5.94967C50.2412 5.82874 50.15 5.78476 49.9199 5.78476H49.5464Z" fill="white"/>
</svg>
