<svg width="68" height="24" viewBox="0 0 68 24" fill="none" xmlns="http://www.w3.org/2000/svg">
<path fill-rule="evenodd" clip-rule="evenodd" d="M21.8817 0.950195V11.9979H16.5615V23.0485H5.75389V11.9979H0.263672V0.950195H21.8817ZM45.659 0.950195H67.2771V19.5184H49.2785L49.2662 19.5286L45.659 23.0502V0.950195ZM44.5732 0.950763V11.9985H39.1685V23.0491H28.3609V11.9985H22.9551V0.950763H44.5732ZM57.5212 6.08064H56.6796V3.96541H55.7148V3.20508H58.486V3.96541H57.5212V6.08064ZM61.7586 6.07948H60.833L60.5673 5.4392H59.3705L59.1049 6.07948H58.1821L59.4041 3.20678H60.5366L61.7586 6.07948ZM59.9689 3.97855L59.6809 4.68172H60.2597L59.9717 3.97855H59.9689ZM62.8016 5.1345V6.07778H61.9572V3.20508H63.3217C64.1131 3.20508 64.5717 3.49949 64.5717 4.1998C64.5717 4.90011 64.1187 5.1345 63.3189 5.1345H62.8016ZM62.8016 3.96541V4.41704H63.2826C63.5874 4.41704 63.6964 4.3513 63.6964 4.17979C63.6964 4.02258 63.579 3.96541 63.2826 3.96541H62.8016ZM57.5212 9.93568H56.6796V7.82046H55.7148V7.06012H58.486V7.82046H57.5212V9.93568ZM60.833 9.93471L60.5673 9.29443H59.3705L59.1049 9.93471H58.1821L59.4041 7.06201H60.5366L61.7586 9.93471H60.833ZM59.9689 7.83378L59.6809 8.53695H60.2597L59.9717 7.83378H59.9689ZM62.8016 8.98936V9.93263H61.9572V7.05993H63.3217C64.1131 7.05993 64.5717 7.35435 64.5717 8.05466C64.5717 8.75497 64.1187 8.98936 63.3189 8.98936H62.8016ZM62.8016 7.82027V8.2719H63.2826C63.5874 8.2719 63.6964 8.20615 63.6964 8.03465C63.6964 7.87744 63.579 7.82027 63.2826 7.82027H62.8016Z" fill="black"/>
</svg>
